<?xml version="1.0" standalone="no"?>
<!DOCTYPE svg PUBLIC "-//W3C//DTD SVG 20010904//EN"
 "http://www.w3.org/TR/2001/REC-SVG-20010904/DTD/svg10.dtd">
<svg version="1.0" xmlns="http://www.w3.org/2000/svg"
 width="1024.000000pt" height="1024.000000pt" viewBox="0 0 1024.000000 1024.000000"
 preserveAspectRatio="xMidYMid meet">

<g transform="translate(0.000000,1024.000000) scale(0.100000,-0.100000)"
fill="#000000" stroke="none">
<path d="M4834 7890 l-581 -5 -59 -51 c-55 -47 -759 -611 -1201 -963 l-193
-153 0 -894 0 -894 580 0 580 0 0 -190 0 -190 -577 -2 -578 -3 -3 -167 -2
-168 577 -2 578 -3 3 -197 2 -198 -580 0 -580 0 2 -162 3 -163 577 -3 578 -2
2 -543 c2 -298 6 -541 11 -539 4 1 594 2 1312 2 l1305 0 0 518 c0 284 3 527 6
540 l6 22 389 0 389 0 0 165 0 165 -390 0 -390 0 0 200 0 200 390 0 390 0 0
170 0 170 -389 0 -389 0 -4 338 c-2 185 -2 397 0 470 l4 132 389 0 389 0 0
170 0 170 -390 0 -390 0 0 185 0 185 390 0 390 0 0 170 0 170 -390 0 -390 0
-1 138 c-1 75 -2 157 -3 182 -1 25 -3 269 -4 543 l-2 497 -587 -2 c-324 -2
-849 -5 -1169 -8z m1416 -1195 l0 -865 -210 0 -210 0 0 665 0 665 -641 0 -640
0 -363 -274 -363 -274 -111 132 c-61 72 -120 143 -131 157 l-20 26 302 236
c166 129 347 271 402 315 l100 80 943 1 942 1 0 -865z m-770 -1925 l0 -2040
-210 0 -210 0 0 1950 c0 1073 -3 1950 -7 1950 -5 0 -116 -79 -248 -176 -132
-96 -352 -256 -490 -355 -341 -244 -441 -316 -720 -519 -416 -301 -446 -322
-450 -318 -2 2 -5 107 -5 233 l-2 230 50 40 c45 36 188 143 532 397 421 310
547 403 644 474 59 43 136 100 170 126 l61 47 443 0 442 1 0 -2040z m-760 280
l0 -500 -210 0 -210 0 0 353 0 353 173 125 c234 171 231 168 240 169 4 0 7
-225 7 -500z m1530 -940 l0 -1380 -207 2 -208 3 -3 1378 -2 1377 210 0 210 0
0 -1380z m-1535 -100 l0 -195 -207 -3 -208 -2 0 200 0 200 208 -2 207 -3 0
-195z m3 -907 l2 -373 -210 0 -210 0 0 375 0 375 208 -2 207 -3 3 -372z"/>
</g>
</svg>
